<?xml version="1.0" encoding="UTF-8" standalone="no"?>
<!DOCTYPE svg PUBLIC "-//W3C//DTD SVG 1.1//EN" "http://www.w3.org/Graphics/SVG/1.1/DTD/svg11.dtd">
<!-- Created with Vectornator (http://vectornator.io/) -->
<svg stroke-miterlimit="10" style="fill-rule:nonzero;clip-rule:evenodd;stroke-linecap:round;stroke-linejoin:round;" version="1.1" viewBox="0 256 1024 512" xml:space="preserve" xmlns="http://www.w3.org/2000/svg" xmlns:xlink="http://www.w3.org/1999/xlink">
<defs/>
<g id="Layer-1">
<g opacity="1">
<g opacity="1">
<g opacity="1">
<path d="M352.544 274.739C344.995 274.739 338.359 277.692 332.784 281.939C332.707 281.998 332.62 282.04 332.544 282.099C330.421 283.739 328.616 285.522 326.944 287.619C322.411 293.306 319.264 300.182 319.264 308.019C319.264 309.619 319.264 511.219 319.264 512.819C319.264 520.656 322.411 527.533 326.944 533.219C328.388 535.031 329.878 536.624 331.664 538.099C337.418 542.851 344.499 546.099 352.544 546.099L663.264 546.099C671.309 546.099 678.39 542.851 684.144 538.099C685.93 536.624 687.419 535.031 688.864 533.219C693.397 527.533 696.544 520.656 696.544 512.819L696.544 308.019C696.544 300.182 693.397 293.305 688.864 287.619C687.193 285.522 685.387 283.739 683.264 282.099C683.188 282.04 683.101 281.997 683.024 281.939C677.449 277.692 670.813 274.739 663.264 274.739L352.544 274.739ZM352.544 290.099L500.224 290.099L500.224 530.419L351.024 530.419C348.727 530.215 346.589 529.647 344.624 528.659C344.57 528.633 344.517 528.606 344.464 528.579C342.6 527.618 340.916 526.424 339.504 524.899C339.04 524.414 338.79 523.754 338.384 523.219C337.511 522.034 336.547 520.922 335.984 519.539C335.118 517.469 334.624 515.222 334.624 512.819C334.624 511.219 334.624 309.619 334.624 308.019C334.624 305.545 335.157 303.203 336.064 301.059C338.784 294.627 345.122 290.099 352.544 290.099ZM515.584 290.099L663.264 290.099C673.161 290.099 681.185 298.122 681.184 308.019L681.184 402.419L515.584 402.419C515.584 387.427 515.584 305.472 515.584 290.099ZM515.584 417.779L590.704 417.779L590.704 530.419L515.584 530.419C515.584 515.385 515.584 432.814 515.584 417.779ZM606.064 417.779L681.184 417.779L681.184 512.819C681.184 515.222 680.69 517.469 679.824 519.539C679.262 520.922 678.296 522.034 677.424 523.219C677.04 523.724 676.82 524.358 676.384 524.819C676.359 524.847 676.329 524.872 676.304 524.899C674.892 526.424 673.209 527.618 671.344 528.579C671.291 528.606 671.238 528.633 671.184 528.659C669.219 529.647 667.081 530.215 664.784 530.419L606.064 530.419C606.064 515.385 606.064 432.814 606.064 417.779Z" fill="#f17f29" fill-rule="nonzero" opacity="1" stroke="none"/>
<g opacity="1">
<path d="M436.544 315.699L440.164 319.32L262.765 503.959L251.904 493.098L436.544 315.699Z" fill="#000000" fill-rule="nonzero" opacity="1" stroke="none"/>
<path d="M444.943 325.103L448.865 328.394L288.234 527.793L276.467 517.919L444.943 325.103Z" fill="#000000" fill-rule="nonzero" opacity="1" stroke="none"/>
</g>
</g>
</g>
</g>
<g opacity="1">
<path d="M116.818 593.061L157.123 593.061C162.147 593.061 166.816 593.662 171.131 594.864C175.445 596.065 179.159 597.84 182.272 600.188C185.385 602.537 187.843 605.54 189.645 609.2C191.447 612.859 192.348 617.146 192.348 622.061C192.348 628.724 190.491 634.158 186.778 638.363C183.064 642.568 178.258 645.654 172.36 647.62L172.36 647.948C175.855 648.166 179.132 649.067 182.19 650.651C185.248 652.235 187.897 654.31 190.136 656.877C192.375 659.444 194.15 662.42 195.461 665.806C196.772 669.192 197.427 672.851 197.427 676.784C197.427 682.026 196.362 686.641 194.232 690.628C192.102 694.615 189.181 697.974 185.467 700.704C181.753 703.435 177.439 705.51 172.524 706.93C167.608 708.35 162.311 709.06 156.631 709.06L116.818 709.06L116.818 593.061ZM132.547 641.23L154.01 641.23C156.959 641.23 159.744 640.93 162.365 640.329C164.987 639.728 167.281 638.718 169.247 637.298C171.213 635.878 172.769 634.076 173.916 631.891C175.063 629.707 175.636 627.031 175.636 623.863C175.636 619.276 174.162 615.289 171.213 611.903C168.264 608.517 163.622 606.824 157.286 606.824L132.547 606.824L132.547 641.23ZM132.547 695.297L155.648 695.297C158.051 695.297 160.7 695.052 163.594 694.56C166.489 694.069 169.192 693.086 171.704 691.611C174.217 690.137 176.346 688.143 178.094 685.631C179.842 683.119 180.716 679.787 180.716 675.637C180.716 668.755 178.476 663.594 173.998 660.154C169.52 656.713 163.458 654.993 155.812 654.993L132.547 654.993L132.547 695.297Z" fill="#000000" fill-rule="nonzero" opacity="1" stroke="none"/>
<path d="M227.41 675.637C227.41 679.023 228.147 682.108 229.622 684.894C231.096 687.679 233.035 690.055 235.438 692.021C237.841 693.987 240.626 695.516 243.794 696.608C246.961 697.7 250.238 698.247 253.624 698.247C258.212 698.247 262.199 697.182 265.585 695.052C268.971 692.922 272.084 690.109 274.924 686.614L286.065 695.134C277.873 705.729 266.404 711.026 251.658 711.026C245.542 711.026 239.998 709.988 235.028 707.913C230.059 705.838 225.853 702.971 222.413 699.312C218.972 695.652 216.323 691.338 214.467 686.368C212.61 681.398 211.681 676.019 211.681 670.23C211.681 664.441 212.692 659.062 214.712 654.092C216.733 649.122 219.518 644.807 223.068 641.148C226.618 637.489 230.851 634.622 235.766 632.547C240.681 630.471 246.033 629.434 251.822 629.434C258.703 629.434 264.52 630.635 269.271 633.038C274.022 635.441 277.927 638.582 280.986 642.459C284.044 646.337 286.256 650.706 287.621 655.566C288.986 660.427 289.669 665.369 289.669 670.394L289.669 675.637L227.41 675.637ZM273.94 663.84C273.831 660.563 273.312 657.56 272.384 654.829C271.456 652.098 270.063 649.723 268.206 647.702C266.349 645.681 264.028 644.097 261.243 642.951C258.458 641.804 255.208 641.23 251.494 641.23C247.89 641.23 244.586 641.913 241.582 643.278C238.578 644.644 236.039 646.419 233.964 648.603C231.888 650.788 230.277 653.218 229.13 655.894C227.983 658.57 227.41 661.219 227.41 663.84L273.94 663.84Z" fill="#000000" fill-rule="nonzero" opacity="1" stroke="none"/>
<path d="M307.364 631.4L322.109 631.4L322.109 643.36L322.437 643.36C324.294 639.21 327.516 635.851 332.104 633.284C336.691 630.717 341.989 629.434 347.996 629.434C351.71 629.434 355.287 630.007 358.728 631.154C362.168 632.301 365.172 634.076 367.739 636.479C370.306 638.882 372.354 641.968 373.883 645.736C375.412 649.504 376.177 653.955 376.177 659.089L376.177 709.06L361.431 709.06L361.431 663.185C361.431 659.58 360.94 656.495 359.956 653.928C358.973 651.361 357.663 649.286 356.024 647.702C354.386 646.118 352.502 644.971 350.372 644.261C348.242 643.551 346.03 643.196 343.736 643.196C340.678 643.196 337.838 643.688 335.217 644.671C332.595 645.654 330.301 647.21 328.335 649.34C326.369 651.47 324.84 654.174 323.748 657.45C322.656 660.727 322.109 664.605 322.109 669.083L322.109 709.06L307.364 709.06L307.364 631.4Z" fill="#000000" fill-rule="nonzero" opacity="1" stroke="none"/>
<path d="M440.074 644.179L418.939 644.179L418.939 679.405C418.939 681.59 418.993 683.747 419.103 685.877C419.212 688.007 419.622 689.918 420.332 691.611C421.041 693.304 422.134 694.669 423.608 695.707C425.083 696.745 427.24 697.264 430.08 697.264C431.828 697.264 433.63 697.1 435.487 696.772C437.344 696.444 439.037 695.844 440.566 694.97L440.566 708.405C438.818 709.388 436.552 710.07 433.766 710.453C430.981 710.835 428.824 711.026 427.295 711.026C421.615 711.026 417.219 710.234 414.106 708.65C410.993 707.067 408.699 705.019 407.224 702.506C405.75 699.994 404.876 697.182 404.603 694.069C404.33 690.956 404.193 687.815 404.193 684.648L404.193 644.179L387.154 644.179L387.154 631.4L404.193 631.4L404.193 609.609L418.939 609.609L418.939 631.4L440.074 631.4L440.074 644.179Z" fill="#000000" fill-rule="nonzero" opacity="1" stroke="none"/>
<path d="M471.04 670.23C471.04 674.162 471.641 677.794 472.842 681.125C474.044 684.457 475.737 687.297 477.921 689.645C480.106 691.993 482.782 693.85 485.949 695.216C489.117 696.581 492.667 697.264 496.599 697.264C500.531 697.264 504.081 696.581 507.249 695.216C510.416 693.85 513.092 691.993 515.277 689.645C517.461 687.297 519.154 684.457 520.356 681.125C521.557 677.794 522.158 674.162 522.158 670.23C522.158 666.298 521.557 662.666 520.356 659.335C519.154 656.003 517.461 653.163 515.277 650.815C513.092 648.467 510.416 646.61 507.249 645.244C504.081 643.879 500.531 643.196 496.599 643.196C492.667 643.196 489.117 643.879 485.949 645.244C482.782 646.61 480.106 648.467 477.921 650.815C475.737 653.163 474.044 656.003 472.842 659.335C471.641 662.666 471.04 666.298 471.04 670.23ZM455.311 670.23C455.311 664.55 456.376 659.253 458.506 654.337C460.636 649.422 463.558 645.108 467.272 641.394C470.985 637.68 475.354 634.759 480.379 632.629C485.403 630.499 490.81 629.434 496.599 629.434C502.388 629.434 507.795 630.499 512.819 632.629C517.844 634.759 522.213 637.68 525.926 641.394C529.64 645.108 532.562 649.422 534.692 654.337C536.822 659.253 537.887 664.55 537.887 670.23C537.887 675.91 536.822 681.235 534.692 686.204C532.562 691.174 529.64 695.489 525.926 699.148C522.213 702.807 517.844 705.701 512.819 707.831C507.795 709.961 502.388 711.026 496.599 711.026C490.81 711.026 485.403 709.961 480.379 707.831C475.354 705.701 470.985 702.807 467.272 699.148C463.558 695.489 460.636 691.174 458.506 686.204C456.376 681.235 455.311 675.91 455.311 670.23Z" fill="#000000" fill-rule="nonzero" opacity="1" stroke="none"/>
<path d="M704.512 644.179L704.512 701.36C701.672 703.107 698.45 704.636 694.845 705.947C691.241 707.258 687.5 708.377 683.622 709.306C679.745 710.234 675.813 710.917 671.826 711.354C667.839 711.791 664.098 712.009 660.603 712.009C650.772 712.009 642.007 710.371 634.307 707.094C626.606 703.817 620.107 699.393 614.81 693.823C609.512 688.252 605.471 681.781 602.685 674.408C599.9 667.035 598.508 659.253 598.508 651.061C598.508 642.432 600.009 634.404 603.013 626.976C606.017 619.549 610.167 613.104 615.465 607.643C620.762 602.182 627.125 597.895 634.552 594.782C641.98 591.669 650.117 590.112 658.964 590.112C669.669 590.112 678.407 591.45 685.179 594.126C691.951 596.802 697.631 600.489 702.218 605.185L691.077 617.146C686.271 612.558 681.192 609.363 675.84 607.561C670.488 605.759 664.863 604.858 658.964 604.858C652.302 604.858 646.294 606.087 640.942 608.544C635.59 611.002 631.002 614.306 627.18 618.457C623.357 622.607 620.407 627.495 618.332 633.12C616.257 638.745 615.219 644.726 615.219 651.061C615.219 657.614 616.366 663.704 618.66 669.329C620.954 674.954 624.121 679.842 628.163 683.993C632.204 688.143 636.955 691.393 642.417 693.741C647.878 696.089 653.831 697.264 660.275 697.264C665.846 697.264 671.116 696.745 676.086 695.707C681.056 694.669 685.288 693.168 688.783 691.201L688.783 658.925L663.06 658.925L663.06 644.179L704.512 644.179Z" fill="#000000" fill-rule="nonzero" opacity="1" stroke="none"/>
<path d="M729.416 631.4L744.161 631.4L744.161 643.36L744.489 643.36C745.472 641.285 746.783 639.401 748.421 637.708C750.06 636.015 751.889 634.567 753.91 633.366C755.93 632.164 758.142 631.209 760.545 630.499C762.948 629.789 765.351 629.434 767.754 629.434C770.157 629.434 772.342 629.761 774.308 630.417L773.652 646.309C772.451 645.982 771.249 645.709 770.048 645.49C768.847 645.272 767.645 645.162 766.444 645.162C759.235 645.162 753.719 647.183 749.896 651.225C746.073 655.266 744.161 661.546 744.161 670.066L744.161 709.06L729.416 709.06L729.416 631.4Z" fill="#000000" fill-rule="nonzero" opacity="1" stroke="none"/>
<path d="M791.183 631.4L805.929 631.4L805.929 709.06L791.183 709.06L791.183 631.4ZM787.743 603.547C787.743 600.598 788.808 598.058 790.938 595.929C793.068 593.799 795.607 592.734 798.556 592.734C801.505 592.734 804.045 593.799 806.175 595.929C808.305 598.058 809.37 600.598 809.37 603.547C809.37 606.496 808.305 609.036 806.175 611.166C804.045 613.296 801.505 614.361 798.556 614.361C795.607 614.361 793.068 613.296 790.938 611.166C788.808 609.036 787.743 606.496 787.743 603.547Z" fill="#000000" fill-rule="nonzero" opacity="1" stroke="none"/>
<path d="M907.182 709.06L892.436 709.06L892.436 697.919L892.109 697.919C889.269 702.07 885.364 705.292 880.394 707.585C875.424 709.879 870.318 711.026 865.075 711.026C859.068 711.026 853.634 709.988 848.773 707.913C843.913 705.838 839.762 702.943 836.321 699.23C832.881 695.516 830.232 691.201 828.375 686.286C826.518 681.371 825.59 676.019 825.59 670.23C825.59 664.441 826.518 659.062 828.375 654.092C830.232 649.122 832.881 644.807 836.321 641.148C839.762 637.489 843.913 634.622 848.773 632.547C853.634 630.471 859.068 629.434 865.075 629.434C870.646 629.434 875.889 630.608 880.804 632.956C885.719 635.305 889.487 638.5 892.109 642.541L892.436 642.541L892.436 585.197L907.182 585.197L907.182 709.06ZM866.877 697.264C870.81 697.264 874.359 696.581 877.527 695.216C880.695 693.85 883.371 691.993 885.555 689.645C887.74 687.297 889.433 684.457 890.634 681.125C891.836 677.794 892.436 674.162 892.436 670.23C892.436 666.298 891.836 662.666 890.634 659.335C889.433 656.003 887.74 653.163 885.555 650.815C883.371 648.467 880.695 646.61 877.527 645.244C874.359 643.879 870.81 643.196 866.877 643.196C862.945 643.196 859.395 643.879 856.228 645.244C853.06 646.61 850.384 648.467 848.2 650.815C846.015 653.163 844.322 656.003 843.121 659.335C841.919 662.666 841.318 666.298 841.318 670.23C841.318 674.162 841.919 677.794 843.121 681.125C844.322 684.457 846.015 687.297 848.2 689.645C850.384 691.993 853.06 693.85 856.228 695.216C859.395 696.581 862.945 697.264 866.877 697.264Z" fill="#000000" fill-rule="nonzero" opacity="1" stroke="none"/>
</g>
</g>
</svg>
