<?xml version="1.0" encoding="UTF-8" standalone="no"?>
<!DOCTYPE svg PUBLIC "-//W3C//DTD SVG 1.1//EN" "http://www.w3.org/Graphics/SVG/1.1/DTD/svg11.dtd">
<!-- Created with Vectornator (http://vectornator.io/) -->
<svg stroke-miterlimit="10" style="fill-rule:nonzero;clip-rule:evenodd;stroke-linecap:round;stroke-linejoin:round;" version="1.1" viewBox="0 256 1024 512" xml:space="preserve" xmlns="http://www.w3.org/2000/svg" xmlns:xlink="http://www.w3.org/1999/xlink">
<defs/>
<g id="Layer-1">
<g opacity="1">
<g opacity="1">
<g opacity="1">
<path d="M222.331 593.94L262.636 593.94C267.66 593.94 272.329 594.541 276.644 595.743C280.958 596.944 284.672 598.719 287.785 601.068C290.898 603.416 293.356 606.42 295.158 610.079C296.96 613.738 297.861 618.025 297.861 622.94C297.861 629.603 296.004 635.037 292.291 639.242C288.577 643.447 283.771 646.533 277.873 648.499L277.873 648.827C281.368 649.045 284.645 649.946 287.703 651.53C290.761 653.114 293.41 655.189 295.649 657.756C297.888 660.323 299.663 663.299 300.974 666.685C302.285 670.071 302.94 673.731 302.94 677.663C302.94 682.906 301.875 687.52 299.745 691.507C297.615 695.494 294.694 698.853 290.98 701.583C287.266 704.314 282.952 706.389 278.036 707.809C273.121 709.229 267.824 709.939 262.144 709.939L222.331 709.939L222.331 593.94ZM238.06 642.109L259.523 642.109C262.472 642.109 265.257 641.809 267.878 641.208C270.5 640.608 272.794 639.597 274.76 638.177C276.726 636.757 278.282 634.955 279.429 632.771C280.576 630.586 281.149 627.91 281.149 624.742C281.149 620.155 279.675 616.168 276.726 612.782C273.777 609.396 269.135 607.703 262.799 607.703L238.06 607.703L238.06 642.109ZM238.06 696.177L261.161 696.177C263.564 696.177 266.213 695.931 269.107 695.439C272.002 694.948 274.705 693.965 277.217 692.49C279.729 691.016 281.859 689.022 283.607 686.51C285.355 683.998 286.228 680.666 286.228 676.516C286.228 669.635 283.989 664.474 279.511 661.033C275.033 657.592 268.971 655.872 261.325 655.872L238.06 655.872L238.06 696.177Z" fill="#ffffff" fill-rule="nonzero" opacity="1" stroke="none"/>
<path d="M332.923 676.516C332.923 679.902 333.66 682.988 335.135 685.773C336.609 688.558 338.548 690.934 340.951 692.9C343.354 694.866 346.139 696.395 349.307 697.487C352.474 698.58 355.751 699.126 359.137 699.126C363.725 699.126 367.712 698.061 371.098 695.931C374.484 693.801 377.597 690.988 380.436 687.493L391.578 696.013C383.386 706.608 371.917 711.905 357.171 711.905C351.055 711.905 345.511 710.868 340.541 708.792C335.572 706.717 331.366 703.85 327.926 700.191C324.485 696.532 321.836 692.217 319.98 687.247C318.123 682.278 317.194 676.898 317.194 671.109C317.194 665.32 318.205 659.941 320.225 654.971C322.246 650.001 325.031 645.687 328.581 642.028C332.131 638.368 336.364 635.501 341.279 633.426C346.194 631.351 351.546 630.313 357.335 630.313C364.216 630.313 370.033 631.514 374.784 633.917C379.535 636.32 383.44 639.461 386.499 643.338C389.557 647.216 391.769 651.585 393.134 656.445C394.499 661.306 395.182 666.249 395.182 671.273L395.182 676.516L332.923 676.516ZM379.453 664.719C379.344 661.443 378.825 658.439 377.897 655.708C376.969 652.977 375.576 650.602 373.719 648.581C371.862 646.56 369.541 644.977 366.756 643.83C363.971 642.683 360.721 642.109 357.007 642.109C353.403 642.109 350.099 642.792 347.095 644.157C344.091 645.523 341.552 647.298 339.476 649.482C337.401 651.667 335.79 654.097 334.643 656.773C333.496 659.449 332.923 662.098 332.923 664.719L379.453 664.719Z" fill="#ffffff" fill-rule="nonzero" opacity="1" stroke="none"/>
<path d="M412.877 632.279L427.622 632.279L427.622 644.239L427.95 644.239C429.807 640.089 433.029 636.73 437.617 634.163C442.204 631.596 447.502 630.313 453.509 630.313C457.223 630.313 460.8 630.886 464.241 632.033C467.681 633.18 470.685 634.955 473.252 637.358C475.819 639.761 477.867 642.847 479.396 646.615C480.925 650.383 481.69 654.834 481.69 659.968L481.69 709.939L466.944 709.939L466.944 664.064C466.944 660.46 466.452 657.374 465.469 654.807C464.486 652.24 463.176 650.165 461.537 648.581C459.899 646.997 458.015 645.85 455.885 645.14C453.755 644.431 451.543 644.076 449.249 644.076C446.191 644.076 443.351 644.567 440.73 645.55C438.108 646.533 435.814 648.09 433.848 650.22C431.882 652.349 430.353 655.053 429.261 658.33C428.169 661.606 427.622 665.484 427.622 669.962L427.622 709.939L412.877 709.939L412.877 632.279Z" fill="#ffffff" fill-rule="nonzero" opacity="1" stroke="none"/>
<path d="M545.587 645.059L524.452 645.059L524.452 680.284C524.452 682.469 524.506 684.626 524.616 686.756C524.725 688.886 525.135 690.797 525.844 692.49C526.554 694.183 527.647 695.549 529.121 696.586C530.596 697.624 532.753 698.143 535.593 698.143C537.341 698.143 539.143 697.979 541 697.651C542.857 697.324 544.55 696.723 546.079 695.849L546.079 709.284C544.331 710.267 542.065 710.95 539.279 711.332C536.494 711.714 534.337 711.905 532.808 711.905C527.128 711.905 522.732 711.113 519.619 709.53C516.506 707.946 514.212 705.898 512.737 703.386C511.263 700.873 510.389 698.061 510.116 694.948C509.843 691.835 509.706 688.695 509.706 685.527L509.706 645.059L492.667 645.059L492.667 632.279L509.706 632.279L509.706 610.488L524.452 610.488L524.452 632.279L545.587 632.279L545.587 645.059Z" fill="#ffffff" fill-rule="nonzero" opacity="1" stroke="none"/>
<path d="M576.553 671.109C576.553 675.041 577.154 678.673 578.355 682.004C579.557 685.336 581.25 688.176 583.434 690.524C585.619 692.873 588.295 694.729 591.462 696.095C594.63 697.46 598.18 698.143 602.112 698.143C606.044 698.143 609.594 697.46 612.762 696.095C615.929 694.729 618.605 692.873 620.79 690.524C622.974 688.176 624.667 685.336 625.869 682.004C627.07 678.673 627.671 675.041 627.671 671.109C627.671 667.177 627.07 663.545 625.869 660.214C624.667 656.882 622.974 654.042 620.79 651.694C618.605 649.346 615.929 647.489 612.762 646.124C609.594 644.758 606.044 644.076 602.112 644.076C598.18 644.076 594.63 644.758 591.462 646.124C588.295 647.489 585.619 649.346 583.434 651.694C581.25 654.042 579.557 656.882 578.355 660.214C577.154 663.545 576.553 667.177 576.553 671.109ZM560.824 671.109C560.824 665.429 561.889 660.132 564.019 655.217C566.149 650.301 569.071 645.987 572.785 642.273C576.498 638.56 580.867 635.638 585.892 633.508C590.916 631.378 596.323 630.313 602.112 630.313C607.901 630.313 613.308 631.378 618.332 633.508C623.357 635.638 627.726 638.56 631.439 642.273C635.153 645.987 638.075 650.301 640.205 655.217C642.335 660.132 643.4 665.429 643.4 671.109C643.4 676.789 642.335 682.114 640.205 687.084C638.075 692.053 635.153 696.368 631.439 700.027C627.726 703.686 623.357 706.58 618.332 708.71C613.308 710.84 607.901 711.905 602.112 711.905C596.323 711.905 590.916 710.84 585.892 708.71C580.867 706.58 576.498 703.686 572.785 700.027C569.071 696.368 566.149 692.053 564.019 687.084C561.889 682.114 560.824 676.789 560.824 671.109Z" fill="#ffffff" fill-rule="nonzero" opacity="1" stroke="none"/>
<path d="M673.546 710.922C670.597 710.922 668.058 709.857 665.928 707.727C663.798 705.597 662.733 703.058 662.733 700.109C662.733 697.16 663.798 694.62 665.928 692.49C668.058 690.36 670.597 689.295 673.546 689.295C676.495 689.295 679.035 690.36 681.165 692.49C683.295 694.62 684.36 697.16 684.36 700.109C684.36 703.058 683.295 705.597 681.165 707.727C679.035 709.857 676.495 710.922 673.546 710.922Z" fill="#f17f29" fill-rule="nonzero" opacity="1" stroke="none"/>
<path d="M723.354 632.279L723.354 721.08C723.354 723.046 723.217 725.641 722.944 728.863C722.671 732.085 721.797 735.198 720.323 738.202C718.848 741.205 716.5 743.799 713.277 745.984C710.055 748.169 705.495 749.261 699.597 749.261C697.958 749.261 696.347 749.152 694.764 748.933C693.18 748.715 691.623 748.332 690.094 747.786L691.732 734.188C692.606 734.515 693.589 734.816 694.682 735.089C695.774 735.362 696.812 735.498 697.795 735.498C701.836 735.498 704.649 734.215 706.232 731.648C707.816 729.081 708.608 725.34 708.608 720.425L708.608 632.279L723.354 632.279ZM705.167 604.426C705.167 601.477 706.232 598.938 708.362 596.808C710.492 594.678 713.032 593.613 715.981 593.613C718.93 593.613 721.469 594.678 723.599 596.808C725.729 598.938 726.794 601.477 726.794 604.426C726.794 607.375 725.729 609.915 723.599 612.045C721.469 614.175 718.93 615.24 715.981 615.24C713.032 615.24 710.492 614.175 708.362 612.045C706.232 609.915 705.167 607.375 705.167 604.426Z" fill="#ffffff" fill-rule="nonzero" opacity="1" stroke="none"/>
<path d="M788.07 651.776C786.323 649.591 784.166 647.762 781.599 646.287C779.032 644.813 775.892 644.076 772.178 644.076C768.683 644.076 765.652 644.813 763.085 646.287C760.518 647.762 759.235 649.919 759.235 652.759C759.235 655.053 759.972 656.91 761.446 658.33C762.921 659.75 764.669 660.896 766.689 661.77C768.71 662.644 770.867 663.299 773.161 663.736C775.455 664.173 777.421 664.556 779.059 664.883C782.227 665.648 785.203 666.576 787.988 667.668C790.774 668.761 793.177 670.181 795.197 671.928C797.218 673.676 798.802 675.806 799.949 678.318C801.096 680.83 801.669 683.889 801.669 687.493C801.669 691.862 800.741 695.603 798.884 698.716C797.027 701.829 794.624 704.369 791.675 706.335C788.726 708.301 785.367 709.721 781.599 710.595C777.83 711.468 774.035 711.905 770.212 711.905C763.767 711.905 758.115 710.922 753.254 708.956C748.394 706.99 744.052 703.386 740.229 698.143L751.37 688.968C753.773 691.371 756.449 693.501 759.398 695.357C762.348 697.214 765.952 698.143 770.212 698.143C772.069 698.143 773.953 697.952 775.864 697.569C777.776 697.187 779.469 696.586 780.943 695.767C782.418 694.948 783.619 693.91 784.548 692.654C785.476 691.398 785.94 689.951 785.94 688.312C785.94 686.128 785.258 684.326 783.892 682.906C782.527 681.486 780.889 680.366 778.977 679.547C777.066 678.728 775.045 678.072 772.915 677.581C770.785 677.089 768.901 676.68 767.263 676.352C764.095 675.587 761.091 674.714 758.252 673.731C755.412 672.748 752.899 671.437 750.715 669.798C748.53 668.16 746.783 666.085 745.472 663.572C744.161 661.06 743.506 657.947 743.506 654.234C743.506 650.192 744.352 646.67 746.045 643.666C747.738 640.662 749.978 638.177 752.763 636.211C755.548 634.245 758.716 632.771 762.266 631.788C765.815 630.804 769.393 630.313 772.997 630.313C778.24 630.313 783.264 631.296 788.07 633.262C792.876 635.228 796.699 638.505 799.539 643.092L788.07 651.776Z" fill="#ffffff" fill-rule="nonzero" opacity="1" stroke="none"/>
</g>
<g opacity="1">
<path d="M352.544 274.739C344.995 274.739 338.359 277.692 332.784 281.939C332.707 281.998 332.62 282.04 332.544 282.099C330.421 283.739 328.616 285.522 326.944 287.619C322.411 293.306 319.264 300.182 319.264 308.019C319.264 309.619 319.264 511.219 319.264 512.819C319.264 520.656 322.411 527.533 326.944 533.219C328.388 535.031 329.878 536.624 331.664 538.099C337.418 542.851 344.499 546.099 352.544 546.099L663.264 546.099C671.309 546.099 678.39 542.851 684.144 538.099C685.93 536.624 687.419 535.031 688.864 533.219C693.397 527.533 696.544 520.656 696.544 512.819L696.544 308.019C696.544 300.182 693.397 293.305 688.864 287.619C687.193 285.522 685.387 283.739 683.264 282.099C683.188 282.04 683.101 281.997 683.024 281.939C677.449 277.692 670.813 274.739 663.264 274.739L352.544 274.739ZM352.544 290.099L500.224 290.099L500.224 530.419L351.024 530.419C348.727 530.215 346.589 529.647 344.624 528.659C344.57 528.633 344.517 528.606 344.464 528.579C342.6 527.618 340.916 526.424 339.504 524.899C339.04 524.414 338.79 523.754 338.384 523.219C337.511 522.034 336.547 520.922 335.984 519.539C335.118 517.469 334.624 515.222 334.624 512.819C334.624 511.219 334.624 309.619 334.624 308.019C334.624 305.545 335.157 303.203 336.064 301.059C338.784 294.627 345.122 290.099 352.544 290.099ZM515.584 290.099L663.264 290.099C673.161 290.099 681.185 298.122 681.184 308.019L681.184 402.419L515.584 402.419C515.584 387.427 515.584 305.472 515.584 290.099ZM515.584 417.779L590.704 417.779L590.704 530.419L515.584 530.419C515.584 515.385 515.584 432.814 515.584 417.779ZM606.064 417.779L681.184 417.779L681.184 512.819C681.184 515.222 680.69 517.469 679.824 519.539C679.262 520.922 678.296 522.034 677.424 523.219C677.04 523.724 676.82 524.358 676.384 524.819C676.359 524.847 676.329 524.872 676.304 524.899C674.892 526.424 673.209 527.618 671.344 528.579C671.291 528.606 671.238 528.633 671.184 528.659C669.219 529.647 667.081 530.215 664.784 530.419L606.064 530.419C606.064 515.385 606.064 432.814 606.064 417.779Z" fill="#f17f29" fill-rule="nonzero" opacity="1" stroke="none"/>
<g opacity="1">
<path d="M436.544 315.699L440.164 319.32L262.765 503.959L251.904 493.098L436.544 315.699Z" fill="#ffffff" fill-rule="nonzero" opacity="1" stroke="none"/>
<path d="M444.943 325.103L448.865 328.394L288.234 527.793L276.467 517.919L444.943 325.103Z" fill="#ffffff" fill-rule="nonzero" opacity="1" stroke="none"/>
</g>
</g>
</g>
</g>
</g>
</svg>
